# xmcd CD database file
#
# Track frame offsets:
#	150
#	30935
#	47922
#	85607
#	95930
#	109962
#
# Disc length: 1727 seconds
#
# Revision: 0
# Processed by: cddbd v1.5.2PL0 Copyright (c) Steve Scherf et al.
# Submitted via: CDex 1.51
#
DISCID=4506bd06
DTITLE=S. Møller Storband - Circular Movements
DYEAR=2001
DGENRE=Jazz
TTITLE0=Circular Movements in G
TTITLE1=Whisper
TTITLE2=The Dark Side of Love Affair
TTITLE3=I'm Beginning To See The Light
TTITLE4=Shiny Stockings
TTITLE5=Dream A Little Dream Of Me
EXTD=YEAR: 2001
EXTT0=
EXTT1=
EXTT2=
EXTT3=
EXTT4=
EXTT5=
PLAYORDER=
